<svg width="32" height="32" viewBox="0 0 32 32" fill="none" xmlns="http://www.w3.org/2000/svg">
  <rect width="32" height="32" rx="8" fill="url(#gradient)"/>
  <path d="M8 12a2 2 0 012-2h12a2 2 0 012 2v4a2 2 0 01-2 2H10a2 2 0 01-2-2v-4zM8 20a2 2 0 012-2h6a2 2 0 012 2v4a2 2 0 01-2 2H10a2 2 0 01-2-2v-4zM20 18a2 2 0 00-2 2v4a2 2 0 002 2h2a2 2 0 002-2v-4a2 2 0 00-2-2h-2z" fill="white"/>
  <defs>
    <linearGradient id="gradient" x1="0" y1="0" x2="32" y2="32" gradientUnits="userSpaceOnUse">
      <stop stop-color="#0ea5e9"/>
      <stop offset="1" stop-color="#3b82f6"/>
    </linearGradient>
  </defs>
</svg>